{"title":"NBA.AllStar.Dunk.2011","uid":6235227,"size":540340043,"categoryP":"video","categoryS":"tv_shows","magnet":"?xt=urn:btih:b5bc8c197ebfce8b7167b1c55389c20722b00587&amp;dn=NBA.AllStar.Dunk.2011&amp;tr=udp%3A%2F%2Ftracker.openbittorrent.com%3A80&amp;tr=udp%3A%2F%2Fopen.demonii.com%3A1337&amp;tr=udp%3A%2F%2Ftracker.coppersurfer.tk%3A6969&amp;tr=udp%3A%2F%2Fexodus.desync.com%3A6969","seeders":0,"leechers":0,"uploader":"b0wen111","files":2,"time":1299843840,"description":"2011 Allstar Sprite Slam Dunk Contest\n\nCaptured from HDTV and encoded with care\n\nPlease enjoy and keep seeding\n\nFormat                           : DivX\nFormat/Info                      : Hack of AVI\nFile size                        : 515 MiB\nDuration                         : 45mn 45s\nOverall bit rate                 : 1 574 Kbps\n\nVideo\nID                               : 0\nFormat                           : MPEG-4 Visual\nFormat settings, BVOP            : 1\nFormat settings, QPel            : No\nFormat settings, GMC             : No warppoints\nFormat settings, Matrix          : Default (H.263)\nMuxing mode                      : Packed bitstream\nCodec ID                         : DX50\nCodec ID/Hint                    : DivX 5\nDuration                         : 45mn 45s\nBit rate                         : 1 501 Kbps\nWidth                            : 704 pixels\nHeight                           : 396 pixels\nDisplay aspect ratio             : 16:9\nFrame rate                       : 25.000 fps\nColor space                      : YUV\nChroma subsampling               : 4:2:0\nBit depth                        : 8 bits\nScan type                        : Progressive\nCompression mode                 : Lossy\nBits/(Pixel*Frame)               : 0.215\nStream size                      : 491 MiB (95%)\nTitle                            : Video\nWriting library                  : DivX 6.6.1.4\n\nAudio\nID                               : 1\nFormat                           : MPEG Audio\nFormat version                   : Version 2\nFormat profile                   : Layer 3\nCodec ID                         : 55\nCodec ID/Hint                    : MP3\nDuration                         : 45mn 45s\nBit rate mode                    : Constant\nBit rate                         : 64.0 Kbps\nChannel(s)                       : 2 channels\nSampling rate                    : 24.0 KHz\nCompression mode                 : Lossy\nStream size                      : 20.9 MiB (4%)\nAlignment                        : Split accross interleaves\nInterleave, duration             : 40 ms (1.00 video frame)\nInterleave, preload duration     : 500 ms","torrent":{"xt":"urn:btih:b5bc8c197ebfce8b7167b1c55389c20722b00587","amp;dn":"NBA.AllStar.Dunk.2011","amp;tr":["udp%3A%2F%2Ftracker.openbittorrent.com%3A80","udp%3A%2F%2Fopen.demonii.com%3A1337","udp%3A%2F%2Ftracker.coppersurfer.tk%3A6969","udp%3A%2F%2Fexodus.desync.com%3A6969"],"infoHash":"b5bc8c197ebfce8b7167b1c55389c20722b00587","infoHashBuffer":{"type":"Buffer","data":[181,188,140,25,126,191,206,139,113,103,177,197,83,137,194,7,34,176,5,135]},"announce":[],"urlList":[]}}